<svg width="14" height="15" viewBox="0 0 14 15" fill="none" xmlns="http://www.w3.org/2000/svg">
<g clip-path="url(#clip0_490_2861)">
<path d="M8.5 4V3C8.5 2.73478 8.39464 2.48043 8.20711 2.29289C8.01957 2.10536 7.76522 2 7.5 2H6.5" stroke="black" stroke-linecap="round" stroke-linejoin="round"/>
<path d="M4 11H1.5C1.23478 11 0.98043 10.8946 0.792893 10.7071C0.605357 10.5196 0.5 10.2652 0.5 10V3C0.5 2.73478 0.605357 2.48043 0.792893 2.29289C0.98043 2.10536 1.23478 2 1.5 2H2.5" stroke="black" stroke-linecap="round" stroke-linejoin="round"/>
<path d="M12.5 6H7.5C6.94772 6 6.5 6.44772 6.5 7V13C6.5 13.5523 6.94772 14 7.5 14H12.5C13.0523 14 13.5 13.5523 13.5 13V7C13.5 6.44772 13.0523 6 12.5 6Z" stroke="black" stroke-linecap="round" stroke-linejoin="round"/>
<path d="M6.75 1H2.25L2.66 2.62C2.68498 2.72843 2.74611 2.82513 2.83335 2.89419C2.92059 2.96325 3.02873 3.00057 3.14 3H5.86C5.97127 3.00057 6.07941 2.96325 6.16665 2.89419C6.25389 2.82513 6.31502 2.72843 6.34 2.62L6.75 1Z" stroke="black" stroke-linecap="round" stroke-linejoin="round"/>
<path d="M8.5 9H11.5" stroke="black" stroke-linecap="round" stroke-linejoin="round"/>
<path d="M8.5 11H11.5" stroke="black" stroke-linecap="round" stroke-linejoin="round"/>
</g>
<defs>
<clipPath id="clip0_490_2861">
<rect width="14" height="14" fill="white" transform="translate(0 0.5)"/>
</clipPath>
</defs>
</svg>
