<svg width="36" height="36" viewBox="0 0 36 36" fill="none" xmlns="http://www.w3.org/2000/svg">
<path d="M25.5 27.6451H19.5L12.825 32.085C11.835 32.745 10.5 32.0401 10.5 30.8401V27.6451C6 27.6451 3 24.6451 3 20.1451V11.145C3 6.64499 6 3.64499 10.5 3.64499H25.5C30 3.64499 33 6.64499 33 11.145V20.1451C33 24.6451 30 27.6451 25.5 27.6451Z" stroke="#787486" stroke-width="2" stroke-miterlimit="10" stroke-linecap="round" stroke-linejoin="round"/>
<path d="M18 17.04V16.725C18 15.705 18.63 15.165 19.26 14.73C19.875 14.31 20.4899 13.77 20.4899 12.78C20.4899 11.4 19.38 10.29 18 10.29C16.62 10.29 15.51 11.4 15.51 12.78" stroke="#787486" stroke-width="2" stroke-linecap="round" stroke-linejoin="round"/>
<path d="M17.9932 20.625H18.0067" stroke="#787486" stroke-width="2" stroke-linecap="round" stroke-linejoin="round"/>
</svg>
