<svg width="24" height="24" viewBox="0 0 24 24" fill="none" xmlns="http://www.w3.org/2000/svg">
<path d="M2 9V6.5C2 4.01 4.01 2 6.5 2H9" stroke="#787486" stroke-width="1.5" stroke-linecap="round" stroke-linejoin="round"/>
<path d="M15 2H17.5C19.99 2 22 4.01 22 6.5V9" stroke="#787486" stroke-width="1.5" stroke-linecap="round" stroke-linejoin="round"/>
<path d="M22 16V17.5C22 19.99 19.99 22 17.5 22H16" stroke="#787486" stroke-width="1.5" stroke-linecap="round" stroke-linejoin="round"/>
<path d="M9 22H6.5C4.01 22 2 19.99 2 17.5V15" stroke="#787486" stroke-width="1.5" stroke-linecap="round" stroke-linejoin="round"/>
<path d="M7 6.6V7.4C7 7.8 6.8 8 6.4 8H5.6C5.2 8 5 7.8 5 7.4V6.6C5 6.2 5.2 6 5.6 6H6.4C6.8 6 7 6.2 7 6.6Z" stroke="#787486" stroke-width="1.5" stroke-linecap="round" stroke-linejoin="round"/>
<path d="M18 6.6V7.4C18 7.8 17.8 8 17.4 8H16.6C16.2 8 16 7.8 16 7.4V6.6C16 6.2 16.2 6 16.6 6H17.4C17.8 6 18 6.2 18 6.6Z" stroke="#787486" stroke-width="1.5" stroke-linecap="round" stroke-linejoin="round"/>
<path d="M7 17.6V18.4C7 18.8 6.8 19 6.4 19H5.6C5.2 19 5 18.8 5 18.4V17.6C5 17.2 5.2 17 5.6 17H6.4C6.8 17 7 17.2 7 17.6Z" stroke="#787486" stroke-width="1.5" stroke-linecap="round" stroke-linejoin="round"/>
<path d="M19 17.6V18.4C19 18.8 18.8 19 18.4 19H17.6C17.2 19 17 18.8 17 18.4V17.6C17 17.2 17.2 17 17.6 17H18.4C18.8 17 19 17.2 19 17.6Z" stroke="#787486" stroke-width="1.5" stroke-linecap="round" stroke-linejoin="round"/>
</svg>
