<svg width="18" height="19" viewBox="0 0 18 19" fill="none" xmlns="http://www.w3.org/2000/svg">
<path d="M5.25 5C5.25 4.58579 5.58579 4.25 6 4.25H13C13.4142 4.25 13.75 4.58579 13.75 5C13.75 5.41421 13.4142 5.75 13 5.75H6C5.58579 5.75 5.25 5.41421 5.25 5Z" fill="#787486"/>
<path d="M6 7.25C5.58579 7.25 5.25 7.58579 5.25 8C5.25 8.41421 5.58579 8.75 6 8.75H11C11.4142 8.75 11.75 8.41421 11.75 8C11.75 7.58579 11.4142 7.25 11 7.25H6Z" fill="#787486"/>
<path fill-rule="evenodd" clip-rule="evenodd" d="M5.5 0.25C2.87665 0.25 0.75 2.37665 0.75 5V15C0.75 17.0711 2.42893 18.75 4.5 18.75H15.5C16.4665 18.75 17.25 17.9665 17.25 17V2C17.25 1.0335 16.4665 0.25 15.5 0.25H5.5ZM15.75 11.25V2C15.75 1.86193 15.6381 1.75 15.5 1.75H5.5C3.70507 1.75 2.25 3.20507 2.25 5V11.9997C2.87675 11.529 3.6558 11.25 4.5 11.25H15.75ZM15.75 12.75H4.5C3.25736 12.75 2.25 13.7574 2.25 15C2.25 16.2426 3.25736 17.25 4.5 17.25H15.5C15.6381 17.25 15.75 17.1381 15.75 17V12.75Z" fill="#787486"/>
</svg>
