<svg width="36" height="36" viewBox="0 0 36 36" fill="none" xmlns="http://www.w3.org/2000/svg">
<path d="M18.03 4.365C13.065 4.365 9.03001 8.4 9.03001 13.365V17.7C9.03001 18.615 8.64001 20.01 8.17501 20.79L6.45001 23.655C5.38501 25.425 6.12001 27.39 8.07001 28.05C14.535 30.21 21.51 30.21 27.975 28.05C29.79 27.45 30.585 25.305 29.595 23.655L27.87 20.79C27.42 20.01 27.03 18.615 27.03 17.7V13.365C27.03 8.415 22.98 4.365 18.03 4.365Z" stroke="#787486" stroke-width="2" stroke-miterlimit="10" stroke-linecap="round"/>
<path d="M20.805 4.8C20.34 4.665 19.86 4.56 19.365 4.5C17.925 4.32 16.545 4.425 15.255 4.8C15.69 3.69 16.77 2.91 18.03 2.91C19.29 2.91 20.37 3.69 20.805 4.8Z" stroke="#787486" stroke-width="2" stroke-miterlimit="10" stroke-linecap="round" stroke-linejoin="round"/>
<path d="M22.53 28.59C22.53 31.065 20.505 33.09 18.03 33.09C16.8 33.09 15.66 32.58 14.85 31.77C14.04 30.96 13.53 29.82 13.53 28.59" stroke="#787486" stroke-width="2" stroke-miterlimit="10"/>
</svg>
