<svg width="24" height="28" viewBox="0 0 24 28" fill="none" xmlns="http://www.w3.org/2000/svg">
<path fill-rule="evenodd" clip-rule="evenodd" d="M17.7345 4.85938C17.9021 5.63269 17.929 6.42373 17.8187 7.19777C20.5641 7.85304 22.7285 9.9149 23.4431 12.5792L23.5475 12.9685C24.2933 15.7491 24.1137 18.6869 23.0345 21.3628L22.9077 21.6771C21.75 24.5475 19.114 26.6122 15.9747 27.1074L14.953 27.2686C12.9972 27.5771 11.0028 27.5771 9.04697 27.2686L8.02529 27.1074C4.886 26.6122 2.24998 24.5475 1.09227 21.6771L0.965516 21.3628C-0.11375 18.6869 -0.293288 15.7491 0.452516 12.9685L0.556947 12.5792C1.27155 9.9149 3.43589 7.85304 6.18127 7.19778C6.07097 6.42373 6.09791 5.6327 6.26551 4.85938C6.73634 2.68703 8.52122 1.0092 10.7765 0.618995L10.9367 0.591262C11.64 0.469579 12.36 0.469579 13.0633 0.591262L13.2235 0.618993C15.4788 1.0092 17.2637 2.68703 17.7345 4.85938ZM11.3177 2.65831C11.769 2.58023 12.231 2.58023 12.6823 2.65831L12.8426 2.68604C14.228 2.92575 15.3244 3.95644 15.6137 5.29091C15.7234 5.79746 15.7461 6.31499 15.6836 6.82316C13.2395 6.4957 10.7605 6.4957 8.31638 6.82316C8.2539 6.31499 8.27655 5.79746 8.38634 5.29091C8.67557 3.95644 9.77202 2.92575 11.1574 2.68604L11.3177 2.65831Z" fill="white"/>
</svg>
