<svg width="30" height="30" viewBox="0 0 30 30" fill="none" xmlns="http://www.w3.org/2000/svg">
<path d="M11.25 27.5H18.75C25 27.5 27.5 25 27.5 18.75V11.25C27.5 5 25 2.5 18.75 2.5H11.25C5 2.5 2.5 5 2.5 11.25V18.75C2.5 25 5 27.5 11.25 27.5Z" fill="url(#paint0_linear_68_882)" fill-opacity="0.2"/>
<path d="M16.9933 19.3167H18C20.3829 19.3167 22.3167 17.3828 22.3167 15C22.3167 12.6172 20.3829 10.6833 18 10.6833H17C16.6359 10.6833 16.35 10.9785 16.35 11.3333C16.35 11.6895 16.6438 11.9833 17 11.9833H18C19.6638 11.9833 21.0167 13.3362 21.0167 15C21.0167 16.6638 19.6638 18.0167 18 18.0167H16.9933C16.6372 18.0167 16.3433 18.3105 16.3433 18.6667C16.3433 19.0228 16.6372 19.3167 16.9933 19.3167Z" fill="url(#paint1_linear_68_882)" stroke="url(#paint2_linear_68_882)" stroke-width="0.3"/>
<path d="M12 19.3167H13C13.3562 19.3167 13.65 19.0228 13.65 18.6667C13.65 18.3105 13.3562 18.0167 13 18.0167H12C10.3362 18.0167 8.98334 16.6638 8.98334 15C8.98334 13.3362 10.3362 11.9833 12 11.9833H13C13.3562 11.9833 13.65 11.6895 13.65 11.3333C13.65 10.9772 13.3562 10.6833 13 10.6833H12C9.61717 10.6833 7.68334 12.6172 7.68334 15C7.68334 17.3828 9.61717 19.3167 12 19.3167Z" fill="url(#paint3_linear_68_882)" stroke="url(#paint4_linear_68_882)" stroke-width="0.3"/>
<path d="M12.3333 15.65H17.6667C18.0229 15.65 18.3167 15.3562 18.3167 15C18.3167 14.6438 18.0229 14.35 17.6667 14.35H12.3333C11.9772 14.35 11.6833 14.6438 11.6833 15C11.6833 15.3562 11.9772 15.65 12.3333 15.65Z" fill="url(#paint5_linear_68_882)" stroke="url(#paint6_linear_68_882)" stroke-width="0.3"/>
<defs>
<linearGradient id="paint0_linear_68_882" x1="3" y1="15" x2="28" y2="15" gradientUnits="userSpaceOnUse">
<stop stop-color="#FF0000"/>
<stop offset="1" stop-color="#FF8C00"/>
</linearGradient>
<linearGradient id="paint1_linear_68_882" x1="19.33" y1="10.8333" x2="19.33" y2="19.1667" gradientUnits="userSpaceOnUse">
<stop stop-color="#FF0000"/>
<stop offset="1" stop-color="#FF8C00"/>
</linearGradient>
<linearGradient id="paint2_linear_68_882" x1="19.33" y1="10.8333" x2="19.33" y2="19.1667" gradientUnits="userSpaceOnUse">
<stop stop-color="#FF0000"/>
<stop offset="1" stop-color="#FF8C00"/>
</linearGradient>
<linearGradient id="paint3_linear_68_882" x1="10.6667" y1="10.8333" x2="10.6667" y2="19.1667" gradientUnits="userSpaceOnUse">
<stop stop-color="#FF0000"/>
<stop offset="1" stop-color="#FF8C00"/>
</linearGradient>
<linearGradient id="paint4_linear_68_882" x1="10.6667" y1="10.8333" x2="10.6667" y2="19.1667" gradientUnits="userSpaceOnUse">
<stop stop-color="#FF0000"/>
<stop offset="1" stop-color="#FF8C00"/>
</linearGradient>
<linearGradient id="paint5_linear_68_882" x1="15" y1="14.5" x2="15" y2="15.5" gradientUnits="userSpaceOnUse">
<stop stop-color="#FF0000"/>
<stop offset="1" stop-color="#FF8C00"/>
</linearGradient>
<linearGradient id="paint6_linear_68_882" x1="15" y1="14.5" x2="15" y2="15.5" gradientUnits="userSpaceOnUse">
<stop stop-color="#FF0000"/>
<stop offset="1" stop-color="#FF8C00"/>
</linearGradient>
</defs>
</svg>
