<svg width="25" height="26" viewBox="0 0 25 26" fill="none" xmlns="http://www.w3.org/2000/svg">
<rect y="0.5" width="25" height="25" rx="4" fill="black" fill-opacity="0.05"/>
<path d="M18.9284 13L12.1427 19.7857C10.3675 21.5609 7.48935 21.5609 5.71415 19.7857V19.7857C3.93895 18.0105 3.93895 15.1323 5.71415 13.3571L5.89272 13.1786L8.56075 10.5761M14.6427 8.71429L7.75496 15.602C7.16323 16.1938 7.16323 17.1532 7.75496 17.7449V17.7449C8.3467 18.3366 9.30609 18.3366 9.89782 17.7449L18.2141 9.42857C19.3976 8.2451 19.3976 6.32632 18.2141 5.14286V5.14286C17.0307 3.95939 15.1119 3.95939 13.9284 5.14286L12.6784 6.39286L10.982 8.08929" stroke="black" stroke-linecap="round"/>
</svg>
