<svg width="52" height="52" viewBox="0 0 52 52" fill="none" xmlns="http://www.w3.org/2000/svg">
<circle cx="26" cy="26" r="26" fill="black"/>
<path d="M32.6638 37.0371C31.3716 38.3036 29.9606 38.1036 28.6024 37.5037C27.1651 36.8904 25.8464 36.8638 24.33 37.5037C22.4311 38.3303 21.429 38.0903 20.2949 37.0371C13.8599 30.3313 14.8094 20.1192 22.1147 19.7459C23.8948 19.8393 25.1344 20.7325 26.1761 20.8125C27.7321 20.4925 29.2222 19.5726 30.8837 19.6926C32.8748 19.8526 34.3781 20.6525 35.3671 22.0923C31.2529 24.5853 32.2287 30.0646 36 31.5978C35.2484 33.5975 34.2726 35.5839 32.6506 37.0504L32.6638 37.0371ZM26.0442 19.666C25.8464 16.693 28.2332 14.24 30.976 14C31.3584 17.4396 27.8903 19.9992 26.0442 19.666Z" fill="white"/>
</svg>
