<svg width="24" height="24" viewBox="0 0 24 24" fill="none" xmlns="http://www.w3.org/2000/svg">
<path d="M5.0918 19.782L5.43229 19.1137L5.0918 19.782ZM4.21799 18.908L3.54973 19.2485H3.54973L4.21799 18.908ZM19.7822 18.908L19.114 18.5675L19.7822 18.908ZM18.9078 19.782L18.5673 19.1137L18.9078 19.782ZM18.9078 4.21799L19.2483 3.54973L18.9078 4.21799ZM19.7822 5.09204L19.114 5.43253L19.7822 5.09204ZM5.0918 4.21799L5.43229 4.88624L5.0918 4.21799ZM4.21799 5.09204L4.88624 5.43253L4.21799 5.09204ZM16 16V15.25C15.5858 15.25 15.25 15.5858 15.25 16H16ZM16.002 16L16.7518 16.0175C16.7565 15.8156 16.6796 15.6204 16.5385 15.4759C16.3974 15.3314 16.2039 15.25 16.002 15.25V16ZM16.002 16.002L15.984 16.7518C16.1829 16.7565 16.3756 16.6821 16.5196 16.5447C16.6636 16.4074 16.7471 16.2185 16.7517 16.0195L16.002 16.002ZM16 16.002H15.25C15.25 16.4092 15.575 16.742 15.9821 16.7517L16 16.002ZM12 16V15.25C11.5858 15.25 11.25 15.5858 11.25 16H12ZM12.002 16L12.7518 16.0175C12.7565 15.8156 12.6796 15.6204 12.5385 15.4759C12.3974 15.3314 12.2039 15.25 12.002 15.25V16ZM12.002 16.002L11.984 16.7518C12.1829 16.7565 12.3756 16.6821 12.5196 16.5447C12.6636 16.4074 12.7471 16.2185 12.7517 16.0195L12.002 16.002ZM12 16.002H11.25C11.25 16.4092 11.575 16.742 11.9821 16.7517L12 16.002ZM8 16V15.25C7.58579 15.25 7.25 15.5858 7.25 16H8ZM8.002 16L8.7518 16.0175C8.75651 15.8156 8.67961 15.6204 8.53849 15.4759C8.39737 15.3314 8.20395 15.25 8.002 15.25V16ZM8.00195 16.002L7.98401 16.7518C8.18294 16.7565 8.37561 16.6821 8.5196 16.5447C8.66359 16.4074 8.7471 16.2185 8.75175 16.0195L8.00195 16.002ZM8 16.002H7.25C7.25 16.4092 7.57495 16.742 7.98206 16.7517L8 16.002ZM16.002 12H16.752C16.752 11.5858 16.4162 11.25 16.002 11.25V12ZM16.002 12.002L15.984 12.7518C16.186 12.7566 16.3814 12.6798 16.5259 12.5386C16.6705 12.3975 16.752 12.204 16.752 12.002H16.002ZM16 12.002H15.25C15.25 12.4092 15.575 12.742 15.9821 12.7517L16 12.002ZM16 12V11.25C15.5858 11.25 15.25 11.5858 15.25 12H16ZM12 12V11.25C11.5858 11.25 11.25 11.5858 11.25 12H12ZM12.002 12L12.7518 12.0175C12.7565 11.8156 12.6796 11.6204 12.5385 11.4759C12.3974 11.3314 12.2039 11.25 12.002 11.25V12ZM12.002 12.002L11.984 12.7518C12.1829 12.7565 12.3756 12.6821 12.5196 12.5447C12.6636 12.4074 12.7471 12.2185 12.7517 12.0195L12.002 12.002ZM12 12.002H11.25C11.25 12.4092 11.575 12.742 11.9821 12.7517L12 12.002ZM8 12V11.25C7.58579 11.25 7.25 11.5858 7.25 12H8ZM8.002 12L8.7518 12.0175C8.75651 11.8156 8.67961 11.6204 8.53849 11.4759C8.39737 11.3314 8.20395 11.25 8.002 11.25V12ZM8.00195 12.002L7.98401 12.7518C8.18294 12.7565 8.37561 12.6821 8.5196 12.5447C8.66359 12.4074 8.7471 12.2185 8.75175 12.0195L8.00195 12.002ZM8 12.002H7.25C7.25 12.4092 7.57495 12.742 7.98206 12.7517L8 12.002ZM4 7.25C3.58579 7.25 3.25 7.58579 3.25 8C3.25 8.41421 3.58579 8.75 4 8.75V7.25ZM20 8.75C20.4142 8.75 20.75 8.41421 20.75 8C20.75 7.58579 20.4142 7.25 20 7.25V8.75ZM16.75 2C16.75 1.58579 16.4142 1.25 16 1.25C15.5858 1.25 15.25 1.58579 15.25 2H16.75ZM15.25 4C15.25 4.41421 15.5858 4.75 16 4.75C16.4142 4.75 16.75 4.41421 16.75 4H15.25ZM8.75 2C8.75 1.58579 8.41421 1.25 8 1.25C7.58579 1.25 7.25 1.58579 7.25 2H8.75ZM7.25 4C7.25 4.41421 7.58579 4.75 8 4.75C8.41421 4.75 8.75 4.41421 8.75 4H7.25ZM7.2002 4.75H16.8002V3.25H7.2002V4.75ZM19.25 7.19995V16.8H20.75V7.19995H19.25ZM16.8002 19.25H7.2002V20.75H16.8002V19.25ZM4.75 16.8V7.19995H3.25V16.8H4.75ZM7.2002 19.25C6.62779 19.25 6.24345 19.2494 5.94746 19.2252C5.66018 19.2018 5.52282 19.1599 5.43229 19.1137L4.7513 20.4502C5.0886 20.6221 5.44538 20.6892 5.82532 20.7202C6.19655 20.7506 6.6525 20.75 7.2002 20.75V19.25ZM3.25 16.8C3.25 17.3476 3.24942 17.8035 3.27974 18.1747C3.31078 18.5546 3.37788 18.9112 3.54973 19.2485L4.88624 18.5675C4.8401 18.477 4.79822 18.3397 4.77476 18.0525C4.75058 17.7566 4.75 17.3724 4.75 16.8H3.25ZM5.43229 19.1137C5.1972 18.9939 5.00614 18.8029 4.88624 18.5675L3.54973 19.2485C3.81333 19.7659 4.23374 20.1865 4.7513 20.4502L5.43229 19.1137ZM19.25 16.8C19.25 17.3725 19.2495 17.7567 19.2253 18.0526C19.2019 18.3398 19.1601 18.4771 19.114 18.5675L20.4505 19.2485C20.6224 18.9112 20.6894 18.5544 20.7204 18.1745C20.7506 17.8034 20.75 17.3476 20.75 16.8H19.25ZM16.8002 20.75C17.3479 20.75 17.8037 20.7506 18.1747 20.7202C18.5546 20.6892 18.9111 20.6221 19.2483 20.4502L18.5673 19.1137C18.4767 19.1599 18.3394 19.2018 18.0525 19.2252C17.7567 19.2494 17.3726 19.25 16.8002 19.25V20.75ZM19.114 18.5675C18.9943 18.8024 18.8029 18.9937 18.5673 19.1137L19.2483 20.4502C19.7653 20.1868 20.1866 19.7664 20.4505 19.2485L19.114 18.5675ZM16.8002 4.75C17.3726 4.75 17.7567 4.75058 18.0525 4.77476C18.3395 4.79821 18.4767 4.84008 18.5673 4.88624L19.2483 3.54973C18.9111 3.37791 18.5545 3.31078 18.1747 3.27974C17.8036 3.24942 17.3479 3.25 16.8002 3.25V4.75ZM20.75 7.19995C20.75 6.65235 20.7506 6.1965 20.7204 5.82543C20.6894 5.4456 20.6224 5.08889 20.4505 4.75155L19.114 5.43253C19.1601 5.52302 19.2019 5.66021 19.2253 5.94735C19.2495 6.24326 19.25 6.62745 19.25 7.19995H20.75ZM18.5673 4.88624C18.8028 5.00624 18.9943 5.19764 19.114 5.43253L20.4505 4.75155C20.1867 4.2338 19.7654 3.81323 19.2483 3.54973L18.5673 4.88624ZM7.2002 3.25C6.65251 3.25 6.19656 3.24942 5.82534 3.27974C5.44541 3.31077 5.08861 3.37787 4.7513 3.54973L5.43229 4.88624C5.52281 4.84012 5.66016 4.79822 5.94745 4.77476C6.24344 4.75058 6.62777 4.75 7.2002 4.75V3.25ZM4.75 7.19995C4.75 6.62752 4.75058 6.24333 4.77476 5.94747C4.79822 5.66037 4.84009 5.5231 4.88624 5.43253L3.54973 4.75155C3.37789 5.0888 3.31078 5.44544 3.27974 5.82531C3.24942 6.19643 3.25 6.65228 3.25 7.19995H4.75ZM4.7513 3.54973C4.23366 3.81348 3.81329 4.2343 3.54973 4.75155L4.88624 5.43253C5.00618 5.19714 5.19728 5.00599 5.43229 4.88624L4.7513 3.54973ZM16 16.75H16.002V15.25H16V16.75ZM15.2522 15.9825L15.2522 15.9845L16.7517 16.0195L16.7518 16.0175L15.2522 15.9825ZM16.0199 15.2522L16.0179 15.2522L15.9821 16.7517L15.984 16.7518L16.0199 15.2522ZM16.75 16.002V16H15.25V16.002H16.75ZM12 16.75H12.002V15.25H12V16.75ZM11.2522 15.9825L11.2522 15.9845L12.7517 16.0195L12.7518 16.0175L11.2522 15.9825ZM12.0199 15.2522L12.0179 15.2522L11.9821 16.7517L11.984 16.7518L12.0199 15.2522ZM12.75 16.002V16H11.25V16.002H12.75ZM8 16.75H8.002V15.25H8V16.75ZM7.2522 15.9825L7.25216 15.9845L8.75175 16.0195L8.7518 16.0175L7.2522 15.9825ZM8.01989 15.2522L8.01794 15.2522L7.98206 16.7517L7.98401 16.7518L8.01989 15.2522ZM8.75 16.002V16H7.25V16.002H8.75ZM15.252 12V12.002H16.752V12H15.252ZM16.0199 11.2522L16.0179 11.2522L15.9821 12.7517L15.984 12.7518L16.0199 11.2522ZM16.75 12.002V12H15.25V12.002H16.75ZM16 12.75H16.002V11.25H16V12.75ZM12 12.75H12.002V11.25H12V12.75ZM11.2522 11.9825L11.2522 11.9845L12.7517 12.0195L12.7518 12.0175L11.2522 11.9825ZM12.0199 11.2522L12.0179 11.2522L11.9821 12.7517L11.984 12.7518L12.0199 11.2522ZM12.75 12.002V12H11.25V12.002H12.75ZM8 12.75H8.002V11.25H8V12.75ZM7.2522 11.9825L7.25216 11.9845L8.75175 12.0195L8.7518 12.0175L7.2522 11.9825ZM8.01989 11.2522L8.01794 11.2522L7.98206 12.7517L7.98401 12.7518L8.01989 11.2522ZM8.75 12.002V12H7.25V12.002H8.75ZM4 8.75H20V7.25H4V8.75ZM15.25 2V4H16.75V2H15.25ZM7.25 2V4H8.75V2H7.25Z" fill="black"/>
</svg>
