<svg width="18" height="18" viewBox="0 0 18 18" fill="none" xmlns="http://www.w3.org/2000/svg">

<path d="M1.92854 2.57141C1.58754 2.57141 1.26052 2.70687 1.0194 2.94798C0.778281 3.18911 0.642822 3.51613 0.642822 3.85713V16.0714C0.642822 16.4124 0.778281 16.7395 1.0194 16.9805C1.26052 17.2216 1.58754 17.3571 1.92854 17.3571H16.0714C16.4124 17.3571 16.7395 17.2216 16.9805 16.9805C17.2216 16.7395 17.3571 16.4124 17.3571 16.0714V3.85713C17.3571 3.51613 17.2216 3.18911 16.9805 2.94798C16.7395 2.70687 16.4124 2.57141 16.0714 2.57141H13.5" stroke="black" stroke-linecap="round" stroke-linejoin="round"/>
<path d="M0.642822 7.07141H17.3571" stroke="black" stroke-linecap="round" stroke-linejoin="round"/>
<path d="M4.5 0.642822V4.49997" stroke="black" stroke-linecap="round" stroke-linejoin="round"/>
<path d="M13.5 0.642822V4.49997" stroke="black" stroke-linecap="round" stroke-linejoin="round"/>
<path d="M4.5 2.57141H10.9286" stroke="black" stroke-linecap="round" stroke-linejoin="round"/>

</svg>
