<svg width="20" height="16" viewBox="0 0 20 16" fill="none" xmlns="http://www.w3.org/2000/svg">
<path d="M4.21249 0.704679C4.15761 0.642809 4.09099 0.592448 4.01649 0.556515C3.942 0.520582 3.86112 0.499791 3.77853 0.495348C3.69594 0.490905 3.61329 0.502898 3.53537 0.530632C3.45746 0.558365 3.38582 0.601288 3.32461 0.656913C3.2634 0.712537 3.21384 0.779756 3.17881 0.854675C3.14377 0.929593 3.12395 1.01072 3.1205 1.09336C3.11705 1.17599 3.13003 1.25849 3.15869 1.33607C3.18736 1.41365 3.23114 1.48477 3.28749 1.5453L4.79062 3.19921C1.95312 4.94062 0.732805 7.62499 0.678899 7.74687C0.643362 7.8268 0.625 7.9133 0.625 8.00077C0.625 8.08825 0.643362 8.17475 0.678899 8.25468C0.706243 8.3164 1.36796 9.78359 2.83906 11.2547C4.79921 13.2141 7.27499 14.25 9.99999 14.25C11.4005 14.258 12.7868 13.9696 14.068 13.4039L15.7867 15.2953C15.8416 15.3572 15.9082 15.4075 15.9827 15.4435C16.0572 15.4794 16.1381 15.5002 16.2207 15.5046C16.3033 15.5091 16.3859 15.4971 16.4638 15.4694C16.5417 15.4416 16.6134 15.3987 16.6746 15.3431C16.7358 15.2874 16.7854 15.2202 16.8204 15.1453C16.8554 15.0704 16.8753 14.9893 16.8787 14.9066C16.8822 14.824 16.8692 14.7415 16.8405 14.6639C16.8118 14.5863 16.7681 14.5152 16.7117 14.4547L4.21249 0.704679ZM7.91015 6.62968L11.1656 10.2117C10.6754 10.4696 10.1134 10.5574 9.56783 10.4613C9.02229 10.3651 8.52413 10.0906 8.15157 9.68062C7.77901 9.27069 7.55315 8.74863 7.50945 8.19641C7.46575 7.6442 7.6067 7.09311 7.91015 6.62968ZM9.99999 13C7.59531 13 5.49452 12.1258 3.75546 10.4023C3.04165 9.69295 2.43454 8.88374 1.95312 7.99999C2.31952 7.31327 3.48905 5.3914 5.65234 4.14218L7.05859 5.68515C6.51416 6.38242 6.23377 7.24971 6.26697 8.13372C6.30017 9.01773 6.64483 9.86155 7.24002 10.516C7.83521 11.1705 8.64262 11.5935 9.51952 11.7102C10.3964 11.8269 11.2864 11.6299 12.032 11.1539L13.1828 12.4195C12.1672 12.8092 11.0878 13.006 9.99999 13ZM10.4687 5.54452C10.3059 5.51344 10.162 5.41894 10.0689 5.28181C9.97568 5.14467 9.94079 4.97613 9.97187 4.81327C10.0029 4.65041 10.0975 4.50657 10.2346 4.41339C10.3717 4.32021 10.5403 4.28532 10.7031 4.3164C11.4997 4.47083 12.225 4.87863 12.7708 5.47897C13.3167 6.07931 13.6539 6.84002 13.732 7.64765C13.7475 7.81268 13.6967 7.97709 13.5909 8.1047C13.4851 8.23231 13.333 8.31268 13.168 8.32812C13.1484 8.32927 13.1289 8.32927 13.1094 8.32812C12.9532 8.32879 12.8024 8.27093 12.6867 8.16595C12.571 8.06097 12.4988 7.91648 12.4844 7.76093C12.4318 7.22374 12.2072 6.71787 11.844 6.31854C11.4809 5.91921 10.9985 5.64775 10.4687 5.54452ZM19.3187 8.25468C19.2859 8.32812 18.4945 10.0805 16.7125 11.6766C16.6516 11.7328 16.5801 11.7764 16.5022 11.8048C16.4243 11.8332 16.3415 11.8458 16.2587 11.8419C16.1759 11.8379 16.0947 11.8176 16.0198 11.782C15.9449 11.7463 15.8779 11.6962 15.8226 11.6344C15.7673 11.5726 15.7249 11.5005 15.6977 11.4221C15.6706 11.3438 15.6593 11.2608 15.6645 11.1781C15.6698 11.0953 15.6914 11.0144 15.7282 10.9401C15.765 10.8658 15.8163 10.7996 15.8789 10.7453C16.7532 9.95985 17.4876 9.03153 18.0508 7.99999C17.5683 7.11544 16.9599 6.30568 16.2445 5.59609C14.5055 3.87421 12.4047 2.99999 9.99999 2.99999C9.49332 2.99937 8.98745 3.0404 8.48749 3.12265C8.40619 3.13703 8.32285 3.13515 8.24227 3.11714C8.1617 3.09912 8.08549 3.06532 8.01806 3.01768C7.95062 2.97005 7.89329 2.90952 7.84938 2.8396C7.80547 2.76969 7.77584 2.69176 7.76222 2.61033C7.7486 2.5289 7.75124 2.44557 7.77001 2.36517C7.78877 2.28476 7.82328 2.20887 7.87153 2.14188C7.91979 2.07489 7.98085 2.01813 8.05117 1.97486C8.12149 1.9316 8.19969 1.9027 8.28124 1.88984C8.84934 1.79603 9.42421 1.74926 9.99999 1.74999C12.725 1.74999 15.2008 2.78593 17.1609 4.74609C18.632 6.21718 19.2937 7.68515 19.3211 7.74687C19.3566 7.8268 19.375 7.9133 19.375 8.00077C19.375 8.08825 19.3566 8.17475 19.3211 8.25468H19.3187Z" fill="#5D5D5D"/>
</svg>
