<svg width="16" height="16" viewBox="0 0 16 16" fill="none" xmlns="http://www.w3.org/2000/svg">
<path d="M14.3334 7.33331V11.3333C14.3334 14 13.6668 14.6666 11.0001 14.6666H4.33342C1.66676 14.6666 1.00009 14 1.00009 11.3333V4.66665C1.00009 1.99998 1.66676 1.33331 4.33342 1.33331H5.33343C6.33343 1.33331 6.55342 1.62665 6.93342 2.13331L7.93342 3.46665C8.18676 3.79998 8.33343 3.99998 9.00009 3.99998H11.0001C13.6668 3.99998 14.3334 4.66665 14.3334 7.33331Z" stroke="#787486" stroke-miterlimit="10"/>
<path d="M5.33334 1.33331H11.3333C12.6667 1.33331 13.3333 1.99998 13.3333 3.33331V4.25331" stroke="#787486" stroke-miterlimit="10" stroke-linecap="round" stroke-linejoin="round"/>
<path d="M9.33333 10H6" stroke="#787486" stroke-miterlimit="10" stroke-linecap="round" stroke-linejoin="round"/>
</svg>
