<svg width="19" height="19" viewBox="0 0 19 19" fill="none" xmlns="http://www.w3.org/2000/svg">
<path fill-rule="evenodd" clip-rule="evenodd" d="M13.7856 0.724986C12.9102 -0.150457 11.4274 0.135106 10.9397 1.27307L9.3471 4.9891C7.84802 4.69513 6.23294 5.12819 5.07003 6.29109L3.35994 8.00119C3.06705 8.29408 3.06705 8.76895 3.35994 9.06185L5.85525 11.5572L0.469609 16.9428C0.176716 17.2357 0.176716 17.7106 0.469609 18.0035C0.762502 18.2963 1.23738 18.2963 1.53027 18.0035L6.91591 12.6178L9.4113 15.1132C9.55195 15.2539 9.74271 15.3329 9.94163 15.3329C10.1405 15.3329 10.3313 15.2539 10.472 15.1132L12.182 13.4031C13.345 12.2402 13.778 10.6251 13.484 9.12603L17.2001 7.53345C18.338 7.04575 18.6236 5.56295 17.7481 4.68751L13.7856 0.724986ZM12.3184 1.86394C12.3881 1.70138 12.5999 1.66058 12.725 1.78565L16.6875 5.74817C16.8125 5.87323 16.7718 6.08506 16.6092 6.15473L12.2939 8.00416C11.9295 8.16031 11.7496 8.57304 11.8832 8.94626C12.2942 10.0946 12.0388 11.425 11.1214 12.3425L9.94163 13.5222L4.95093 8.53152L6.13069 7.35175C7.0481 6.43434 8.37858 6.17897 9.52687 6.58997C9.90009 6.72356 10.3128 6.54364 10.469 6.17928L12.3184 1.86394Z" fill="#787486"/>
</svg>
