<svg width="88" height="27" viewBox="0 0 88 27" fill="none" xmlns="http://www.w3.org/2000/svg">
<path d="M10.6502 26.48C8.81016 26.48 7.14349 26.08 5.65016 25.28C4.18349 24.4533 3.01016 23.2667 2.13016 21.72C1.27682 20.1467 0.850156 18.2667 0.850156 16.08C0.850156 13.8667 1.33016 11.9867 2.29016 10.44C3.25016 8.89333 4.51682 7.72 6.09016 6.92C7.66349 6.09333 9.35682 5.68 11.1702 5.68C12.3968 5.68 13.4768 5.88 14.4102 6.28C15.3702 6.68 16.2235 7.18667 16.9702 7.8L14.2102 11.6C13.2768 10.8267 12.3835 10.44 11.5302 10.44C10.1168 10.44 8.98349 10.9467 8.13016 11.96C7.30349 12.9733 6.89016 14.3467 6.89016 16.08C6.89016 17.7867 7.30349 19.16 8.13016 20.2C8.98349 21.2133 10.0502 21.72 11.3302 21.72C11.9702 21.72 12.5968 21.5867 13.2102 21.32C13.8235 21.0267 14.3835 20.68 14.8902 20.28L17.2102 24.12C16.2235 24.9733 15.1568 25.5867 14.0102 25.96C12.8635 26.3067 11.7435 26.48 10.6502 26.48ZM20.682 26V6.16H25.482L25.882 9.64H26.042C26.762 8.30667 27.6287 7.32 28.642 6.68C29.6554 6.01333 30.6687 5.68 31.682 5.68C32.242 5.68 32.7087 5.72 33.082 5.8C33.4554 5.85333 33.7754 5.94667 34.042 6.08L33.082 11.16C32.7354 11.0533 32.3887 10.9733 32.042 10.92C31.722 10.8667 31.3487 10.84 30.922 10.84C30.1754 10.84 29.3887 11.12 28.562 11.68C27.762 12.2133 27.0954 13.1467 26.562 14.48V26H20.682ZM40.4867 26.48C38.6734 26.48 37.2334 25.9067 36.1667 24.76C35.1001 23.5867 34.5667 22.16 34.5667 20.48C34.5667 18.4 35.4467 16.7733 37.2067 15.6C38.9667 14.4267 41.8067 13.64 45.7267 13.24C45.6734 12.36 45.4067 11.6667 44.9267 11.16C44.4734 10.6267 43.7001 10.36 42.6067 10.36C41.7801 10.36 40.9401 10.52 40.0867 10.84C39.2334 11.16 38.3267 11.6 37.3667 12.16L35.2467 8.28C36.5001 7.50667 37.8334 6.88 39.2467 6.4C40.6867 5.92 42.1801 5.68 43.7267 5.68C46.2601 5.68 48.2067 6.41333 49.5667 7.88C50.9267 9.34667 51.6067 11.6 51.6067 14.64V26H46.8067L46.4067 23.96H46.2467C45.4201 24.7067 44.5267 25.32 43.5667 25.8C42.6334 26.2533 41.6067 26.48 40.4867 26.48ZM42.4867 21.92C43.1534 21.92 43.7267 21.7733 44.2067 21.48C44.7134 21.16 45.2201 20.7467 45.7267 20.24V16.76C43.6467 17.0267 42.2067 17.4533 41.4067 18.04C40.6067 18.6 40.2067 19.2667 40.2067 20.04C40.2067 20.68 40.4067 21.16 40.8067 21.48C41.2334 21.7733 41.7934 21.92 42.4867 21.92ZM63.5173 26.48C61.064 26.48 59.304 25.7733 58.2373 24.36C57.1973 22.9467 56.6773 21.0933 56.6773 18.8V10.76H53.9573V6.4L56.9973 6.16L57.6773 0.879999H62.5573V6.16H67.3173V10.76H62.5573V18.72C62.5573 19.84 62.784 20.6533 63.2373 21.16C63.7173 21.64 64.344 21.88 65.1173 21.88C65.4373 21.88 65.7573 21.84 66.0773 21.76C66.424 21.68 66.7307 21.5867 66.9973 21.48L67.9173 25.76C67.4107 25.92 66.784 26.08 66.0373 26.24C65.3173 26.4 64.4773 26.48 63.5173 26.48ZM79.3667 26.48C77.4734 26.48 75.7667 26.0667 74.2467 25.24C72.7267 24.4133 71.5267 23.2267 70.6467 21.68C69.7667 20.1333 69.3267 18.2667 69.3267 16.08C69.3267 13.92 69.7667 12.0667 70.6467 10.52C71.5534 8.97333 72.7267 7.78667 74.1667 6.96C75.6067 6.10667 77.1134 5.68 78.6867 5.68C80.5801 5.68 82.1401 6.10667 83.3667 6.96C84.6201 7.78667 85.5534 8.92 86.1667 10.36C86.8067 11.7733 87.1267 13.3867 87.1267 15.2C87.1267 15.7067 87.1001 16.2133 87.0467 16.72C86.9934 17.2 86.9401 17.56 86.8867 17.8H75.0067C75.2734 19.24 75.8734 20.3067 76.8067 21C77.7401 21.6667 78.8601 22 80.1667 22C81.5801 22 83.0067 21.56 84.4467 20.68L86.4067 24.24C85.3934 24.9333 84.2601 25.48 83.0067 25.88C81.7534 26.28 80.5401 26.48 79.3667 26.48ZM74.9667 13.92H82.1267C82.1267 12.8267 81.8601 11.9333 81.3267 11.24C80.8201 10.52 79.9801 10.16 78.8067 10.16C77.9001 10.16 77.0867 10.48 76.3667 11.12C75.6467 11.7333 75.1801 12.6667 74.9667 13.92Z" fill="url(#paint0_linear_55_888)"/>
<defs>
<linearGradient id="paint0_linear_55_888" x1="73.5" y1="-3.5" x2="25" y2="31.5" gradientUnits="userSpaceOnUse">
<stop stop-color="#FC0000"/>
<stop offset="1" stop-color="#FF8C00"/>
</linearGradient>
</defs>
</svg>
