<svg width="40" height="40" viewBox="0 0 40 40" fill="none" xmlns="http://www.w3.org/2000/svg">
<path d="M10.239 28.0292L9.53188 27.7793H9.53188L10.239 28.0292ZM11.7703 29.5605L12.0201 30.2676H12.0201L11.7703 29.5605ZM15.1582 28.7518L14.7945 29.4077L15.1582 28.7518ZM11.101 24.5662L11.768 24.2233L11.101 24.5662ZM11.1673 25.4022L11.8745 25.6521L11.1673 25.4022ZM10.75 20C10.75 14.8914 14.8914 10.75 20 10.75V9.25C14.0629 9.25 9.25 14.0629 9.25 20H10.75ZM11.768 24.2233C11.1175 22.9581 10.75 21.523 10.75 20H9.25C9.25 21.7671 9.67697 23.4367 10.434 24.9092L11.768 24.2233ZM10.9462 28.2791L11.8745 25.6521L10.4602 25.1523L9.53188 27.7793L10.9462 28.2791ZM11.5204 28.8533C11.1637 28.9793 10.8201 28.6358 10.9462 28.2791L9.53188 27.7793C8.98573 29.3249 10.4746 30.8138 12.0201 30.2676L11.5204 28.8533ZM14.043 27.9619L11.5204 28.8533L12.0201 30.2676L14.5427 29.3762L14.043 27.9619ZM20 29.25C18.3739 29.25 16.848 28.8311 15.5218 28.0958L14.7945 29.4077C16.3375 30.2632 18.113 30.75 20 30.75V29.25ZM29.25 20C29.25 25.1086 25.1086 29.25 20 29.25V30.75C25.9371 30.75 30.75 25.9371 30.75 20H29.25ZM20 10.75C25.1086 10.75 29.25 14.8914 29.25 20H30.75C30.75 14.0629 25.9371 9.25 20 9.25V10.75ZM14.5427 29.3762C14.6082 29.3531 14.7001 29.3554 14.7945 29.4077L15.5218 28.0958C15.0862 27.8543 14.5489 27.7832 14.043 27.9619L14.5427 29.3762ZM10.434 24.9092C10.4814 25.0013 10.4824 25.0893 10.4602 25.1523L11.8745 25.6521C12.0463 25.1657 11.9871 24.6494 11.768 24.2233L10.434 24.9092Z" fill="#787486"/>
<circle cx="27" cy="12" r="3" fill="#FC0000"/>
<circle cx="15.25" cy="20.5" r="1.25" fill="#787486"/>
<circle cx="20.25" cy="20.5" r="1.25" fill="#787486"/>
<circle cx="25.25" cy="20.5" r="1.25" fill="#787486"/>
</svg>
