<svg width="40" height="40" viewBox="0 0 40 40" fill="none" xmlns="http://www.w3.org/2000/svg">
<rect width="40" height="40" rx="6" fill="#05E1F9" fill-opacity="0.4"/>
<path d="M11.6247 29.2396L11.1562 28.654H11.1562L11.6247 29.2396ZM14.4522 26.9776L13.9837 26.392L14.4522 26.9776ZM10.75 15.5394C10.75 13.1922 12.6528 11.2894 15 11.2894V9.78937C11.8244 9.78937 9.25 12.3637 9.25 15.5394H10.75ZM10.75 21.0394V15.5394H9.25V21.0394H10.75ZM10.75 21.5394V21.0394H9.25V21.5394H10.75ZM10.75 28.4587V21.5394H9.25V28.4587H10.75ZM11.1562 28.654C10.9925 28.7849 10.75 28.6684 10.75 28.4587H9.25C9.25 29.9261 10.9474 30.7419 12.0932 29.8253L11.1562 28.654ZM13.9837 26.392L11.1562 28.654L12.0932 29.8253L14.9207 27.5633L13.9837 26.392ZM25 25.7894H15.7016V27.2894H25V25.7894ZM29.25 21.5394C29.25 23.8866 27.3472 25.7894 25 25.7894V27.2894C28.1756 27.2894 30.75 24.715 30.75 21.5394H29.25ZM29.25 15.5394V21.5394H30.75V15.5394H29.25ZM25 11.2894C27.3472 11.2894 29.25 13.1922 29.25 15.5394H30.75C30.75 12.3637 28.1756 9.78937 25 9.78937V11.2894ZM15 11.2894H25V9.78937H15V11.2894ZM14.9207 27.5633C15.1423 27.386 15.4177 27.2894 15.7016 27.2894V25.7894C15.0771 25.7894 14.4713 26.0019 13.9837 26.392L14.9207 27.5633Z" fill="#0055EE"/>
<circle cx="15.0498" cy="18.5892" r="1.25" fill="#0055EE"/>
<circle cx="20.0498" cy="18.5892" r="1.25" fill="#0055EE"/>
<circle cx="25.0498" cy="18.5892" r="1.25" fill="#0055EE"/>
</svg>
